<svg xmlns="http://www.w3.org/2000/svg" xmlns:xlink="http://www.w3.org/1999/xlink" width="197.579" height="169.269" viewBox="0 0 197.579 169.269">
  <defs>
    <linearGradient id="linear-gradient" x1="0.5" y1="1" x2="0.5" gradientUnits="objectBoundingBox">
      <stop offset="0" stop-color="gray" stop-opacity="0.251"/>
      <stop offset="0.54" stop-color="gray" stop-opacity="0.122"/>
      <stop offset="1" stop-color="gray" stop-opacity="0.102"/>
    </linearGradient>
  </defs>
  <g id="undraw_book_lover_mkck" transform="translate(0 -0.008)">
    <path id="Path_315" data-name="Path 315" d="M214.79,91.8c-12.458-.452-24.325-4.645-35.654-9.233s-22.552-9.673-34.711-12.1c-7.821-1.564-16.766-1.784-23.066,2.587-6.065,4.215-8.025,11.471-9.078,18.212-.793,5.07-1.259,10.406.914,15.153,1.507,3.3,4.185,6.066,6.034,9.233,6.443,10.984,1.89,24.529-5.091,35.253-3.272,5.032-7.074,9.836-9.6,15.187s-3.7,11.492-1.486,16.955c2.192,5.42,7.415,9.482,13.07,12.343,11.49,5.811,25.023,7.473,38.23,8.414,29.225,2.086,58.6,1.182,87.907.279,10.845-.335,21.736-.674,32.4-2.423,5.925-.972,12.04-2.511,16.342-6.233a14.691,14.691,0,0,0,3.155-18.643c-6.138-9.934-23.1-12.4-27.395-23.063-2.36-5.867.065-12.4,3.5-17.846,7.361-11.674,19.7-21.917,20.348-35.261.447-9.167-5.486-18.344-14.656-22.682-9.611-4.562-22.943-3.984-30.03,3.541C238.62,89.222,225.789,92.2,214.79,91.8Z" transform="translate(-98.63 -63.065)" fill="#ff6ea1" opacity="0.1"/>
    <path id="Path_316" data-name="Path 316" d="M151.245,469.641l-83.762-.409L59.16,449.711l29.43-2.136-5.129-21.4,58.209-7.545L85.93,399.25l4.924-1.17L180.482,412.7l-4.936,33.4-7.055,18.356Z" transform="translate(-44.682 -323.381)" fill="#ff6ea1"/>
    <path id="Path_317" data-name="Path 317" d="M187,698.593s5.139-.822,8.223,2.809c0,0-2.261,1.782-7.126-.685Z" transform="translate(-162.915 -567.922)" fill="#ff6ea1"/>
    <path id="Path_318" data-name="Path 318" d="M178.284,698.51s-3.279,4.035-1.664,8.528c0,0,2.672-1.069,2.964-6.517Z" transform="translate(-154.737 -567.919)" fill="#ff6ea1"/>
    <path id="Path_319" data-name="Path 319" d="M172.76,667.372s2.056-3.771,10.278,1.507c0,0-1.1,2.535-4.728,2.33S173.719,669.359,172.76,667.372Z" transform="translate(-152.16 -537.056)" fill="#ff6ea1"/>
    <path id="Path_320" data-name="Path 320" d="M156.149,670.277s-4.265-.489-4.679,9.275c0,0,2.7.56,4.625-2.528S157.228,672.2,156.149,670.277Z" transform="translate(-136.08 -540.907)" fill="#ff6ea1"/>
    <path id="Path_321" data-name="Path 321" d="M160.44,627.3s2.4-6.647,11.1-1.919c0,0-1.987,6.1-10.21,4.18Z" transform="translate(-142.855 -503.576)" fill="#ff6ea1"/>
    <path id="Path_322" data-name="Path 322" d="M149.52,588.184s4.522-6.715,12.539-.489c0,0-2.809,6.3-11.854,2.878Z" transform="translate(-134.607 -472.971)" fill="#ff6ea1"/>
    <path id="Path_323" data-name="Path 323" d="M145.6,550.757s5.276-6.169,13.215,0c0,0-5,5.413-13.215,1.576Z" transform="translate(-131.646 -443.516)" fill="#ff6ea1"/>
    <path id="Path_324" data-name="Path 324" d="M142.24,512.533s5.345-6.441,12.951-.343c0,0-6.03,5.687-12.951,1.85Z" transform="translate(-129.108 -413.039)" fill="#ff6ea1"/>
    <path id="Path_325" data-name="Path 325" d="M144.2,474.094s5.629-8.291,12.745-2.672c0,0-6.03,7.126-12.745,4.248Z" transform="translate(-130.589 -381.335)" fill="#ff6ea1"/>
    <path id="Path_326" data-name="Path 326" d="M149.52,436.188s5.961-8.223,12.882-1.919c0,0-7.058,7.126-12.882,3.426Z" transform="translate(-134.607 -351.529)" fill="#ff6ea1"/>
    <path id="Path_327" data-name="Path 327" d="M156.688,398.073s7.058-7.728,13.215-4.65c0,0-7.354,8.208-13.523,6.7Z" transform="translate(-139.788 -320.495)" fill="#ff6ea1"/>
    <path id="Path_328" data-name="Path 328" d="M165.938,360.229s8.144-9.466,12.882-6.3c0,0-6,7.342-13.46,8.076Z" transform="translate(-146.57 -289.292)" fill="#ff6ea1"/>
    <path id="Path_329" data-name="Path 329" d="M179.317,324.555s7.129-7.728,12.336-5.81c0,0-6.1,8.017-13.293,8.223Z" transform="translate(-156.389 -261.635)" fill="#ff6ea1"/>
    <path id="Path_330" data-name="Path 330" d="M194.383,288.354s7.88-7.4,11.306-6.1c0,0-5.687,8.223-11.649,7.743Z" transform="translate(-168.232 -232.773)" fill="#ff6ea1"/>
    <path id="Path_331" data-name="Path 331" d="M208.32,249.32s6.784-8.842,10.486-8.156c0,0-4.114,7.882-10.486,9.055Z" transform="translate(-179.017 -200.311)" fill="#ff6ea1"/>
    <path id="Path_332" data-name="Path 332" d="M221.537,209.191s6-6.776,9.236-6.762c0,0-4.733,9.055-9.483,8.971Z" transform="translate(-188.813 -169.599)" fill="#ff6ea1"/>
    <path id="Path_333" data-name="Path 333" d="M228.307,156.835,234.1,142.72s.289,12.76-6.529,16.734Z" transform="translate(-193.557 -118.414)" fill="#ff6ea1"/>
    <path id="Path_334" data-name="Path 334" d="M240.069,97.447s.959-11.788.343-12.747c0,0,4.141,9.8-.382,17.955Z" transform="translate(-202.967 -74.592)" fill="#ff6ea1"/>
    <path id="Path_335" data-name="Path 335" d="M128.984,635.5s-6.005-3.722-9.894,5.384c0,0,5.345,3.548,10.6-3.061Z" transform="translate(-111.624 -512.445)" fill="#ff6ea1"/>
    <path id="Path_336" data-name="Path 336" d="M114.969,594.532s-7.366-3.36-10.939,6.147c0,0,5.69,3.915,11.609-3.744Z" transform="translate(-100.249 -480.162)" fill="#ff6ea1"/>
    <path id="Path_337" data-name="Path 337" d="M103.415,553.068s-5.276-6.169-13.215,0c0,0,5,5.413,13.215,1.576Z" transform="translate(-89.804 -445.347)" fill="#ff6ea1"/>
    <path id="Path_338" data-name="Path 338" d="M101.531,512.533s-5.345-6.441-12.951-.343c0,0,6.03,5.687,12.951,1.85Z" transform="translate(-88.58 -413.039)" fill="#ff6ea1"/>
    <path id="Path_339" data-name="Path 339" d="M107.478,469.914s-3.749-9.287-11.9-5.293c0,0,4.4,8.235,11.565,6.835Z" transform="translate(-93.867 -376.79)" fill="#ff6ea1"/>
    <path id="Path_340" data-name="Path 340" d="M114.441,430.041s-3.727-9.449-11.991-5.068c0,0,5.061,8.661,11.624,6.527Z" transform="translate(-99.056 -345.209)" fill="#ff6ea1"/>
    <path id="Path_341" data-name="Path 341" d="M135.21,380.016s-1.468-10.359-8.32-11.286c0,0,1.454,10.924,7.4,13.154Z" transform="translate(-117.515 -301.849)" fill="#ff6ea1"/>
    <path id="Path_342" data-name="Path 342" d="M149.178,341.9s-.573-12.481-6.238-12.916c0,0,.191,9.473,5.6,14.683Z" transform="translate(-129.637 -270.363)" fill="#ff6ea1"/>
    <path id="Path_343" data-name="Path 343" d="M162.767,306.056s-1.689-10.379-7.1-11.646c0,0,.671,10.051,6.561,14.194Z" transform="translate(-139.252 -242.862)" fill="#ff6ea1"/>
    <path id="Path_344" data-name="Path 344" d="M186.238,269.73s-.056-10.812-3.36-12.4c0,0-2.048,9.789,2.4,13.78Z" transform="translate(-159.446 -213.378)" fill="#ff6ea1"/>
    <path id="Path_345" data-name="Path 345" d="M196.946,234.911s-.463-11.132-3.884-12.7c0,0-1.17,8.81,3.372,13.43Z" transform="translate(-167.392 -185.46)" fill="#ff6ea1"/>
    <path id="Path_346" data-name="Path 346" d="M214.19,199.189s-.02-9.055-2.462-11.179c0,0-2.428,9.918,1.187,13Z" transform="translate(-180.989 -158.275)" fill="#ff6ea1"/>
    <path id="Path_347" data-name="Path 347" d="M219.274,152.07,216.9,137s-3.228,12.349,2.489,17.791Z" transform="translate(-184.81 -114.094)" fill="#ff6ea1"/>
    <path id="Path_348" data-name="Path 348" d="M212.858,102.627s-6.1-10.131-5.974-11.257c0,0,.648,10.618,8.32,15.907Z" transform="translate(-177.931 -79.63)" fill="#ff6ea1"/>
    <path id="Path_349" data-name="Path 349" d="M208.42,77.134s-5.756-14.389-8.36-15.554A18.239,18.239,0,0,1,208.9,76.723Z" transform="translate(-172.779 -57.13)" fill="#ff6ea1"/>
    <path id="Path_350" data-name="Path 350" d="M219.954,150.271l-.394-.12c4.858-15.841,6.069-25.94,3.414-28.473l.281-.3C226.072,124.052,224.929,134.042,219.954,150.271Z" transform="translate(-187.507 -102.296)" fill="#444053"/>
    <path id="Path_351" data-name="Path 351" d="M164.712,272.957l-.582-.208c.516-1.451,1.072-2.924,1.654-4.376,5.071-12.637,9.387-24.394,12.155-33.419l.507-.245c-2.773,9.042-7.014,21.249-12.089,33.9C165.777,270.038,165.224,271.5,164.712,272.957Z" transform="translate(-145.641 -196.549)" fill="#444053"/>
    <path id="Path_352" data-name="Path 352" d="M158.627,473.944c-.078-.086-7.951-8.952-13.44-24.088a89.122,89.122,0,0,1-5.3-27.6c-.377-11.778,2.095-24.929,6.328-36.877l.46.538c-9.5,26.814-5.729,49.79-.719,63.627,5.43,15,13.215,23.767,13.291,23.855Z" transform="translate(-127.3 -331.418)" fill="#444053"/>
    <path id="Path_353" data-name="Path 353" d="M559.915,670.36s-5.548,6.771-1.143,17.008l-44.294,19.21-4.251.891L508.27,698.9l1.309-10.809v-5.907Z" transform="translate(-432.825 -546.658)" fill="#d5d6db"/>
    <path id="Path_354" data-name="Path 354" d="M59.16,574.566l61.307-11.176L201.7,576.331,151.245,594.5Z" transform="translate(-44.682 -449.924)" fill="#ff6ea1"/>
    <path id="Path_355" data-name="Path 355" d="M59.16,574.566l61.307-11.176L201.7,576.331,151.245,594.5Z" transform="translate(-44.682 -449.924)" fill="#ff6ea1"/>
    <path id="Path_356" data-name="Path 356" d="M140.617,652.47s-5.734,10.863.874,20.9l90.913,19.7s-5.643-8.653.291-20.664Z" transform="translate(-126.139 -533.146)" fill="#ff6ea1"/>
    <path id="Path_357" data-name="Path 357" d="M140.617,652.47s-5.734,10.863.874,20.9l90.913,19.7s-5.643-8.653.291-20.664Z" transform="translate(-126.139 -533.146)" opacity="0.1"/>
    <path id="Path_358" data-name="Path 358" d="M154.315,667.86s-3.277,7.948,0,13.092" transform="translate(-137.129 -539.478)" opacity="0.1"/>
    <path id="Path_359" data-name="Path 359" d="M242.223,751.518l50.755-21.658s2.839.612,1,2.692S243.2,753.6,243.2,753.6l-91.892-21.78Z" transform="translate(-135.959 -591.597)" fill="#ff6ea1"/>
    <path id="Path_360" data-name="Path 360" d="M242.223,751.518l50.755-21.658s2.839.612,1,2.692S243.2,753.6,243.2,753.6l-91.892-21.78Z" transform="translate(-135.959 -591.597)" opacity="0.1"/>
    <path id="Path_361" data-name="Path 361" d="M499.1,742.86s-4.894,5.873,0,14.683" transform="translate(-418.228 -601.416)" opacity="0.1"/>
    <rect id="Rectangle_308" data-name="Rectangle 308" width="23.143" height="0.245" transform="translate(79.859 148.669) rotate(-18.45)" opacity="0.1"/>
    <rect id="Rectangle_309" data-name="Rectangle 309" width="28.199" height="0.245" transform="translate(79.38 150.639) rotate(-20.82)" opacity="0.1"/>
    <rect id="Rectangle_310" data-name="Rectangle 310" width="32.685" height="0.245" transform="translate(79.058 152.962) rotate(-22.26)" opacity="0.1"/>
    <rect id="Rectangle_311" data-name="Rectangle 311" width="37.623" height="0.245" transform="translate(78.858 155.009) rotate(-24.31)" opacity="0.1"/>
    <rect id="Rectangle_312" data-name="Rectangle 312" width="41.149" height="0.245" transform="matrix(0.916, -0.401, 0.401, 0.916, 78.653, 156.006)" opacity="0.1"/>
    <rect id="Rectangle_313" data-name="Rectangle 313" width="49.242" height="0.245" transform="translate(78.126 157.68) rotate(-23.36)" opacity="0.1"/>
    <path id="Path_362" data-name="Path 362" d="M152.23,585.995l43.07-9.055,26.239,5.017-35.293,11.379Z" transform="translate(-114.976 -458.732)" fill="#fff" opacity="0.3"/>
    <path id="Path_363" data-name="Path 363" d="M574.464,659.69s2.227.9.92,2.286S524,677.855,524,677.855Z" transform="translate(-445.748 -533.664)" fill="#ff6ea1"/>
    <path id="Path_364" data-name="Path 364" d="M659.213,574.18s-5.545,6.769-1.14,17.008L613.779,610.4l-4.251.9-1.958-8.565,1.329-10.807v-5.915Z" transform="translate(-514.274 -468.139)" fill="#d5d6db"/>
    <path id="Path_365" data-name="Path 365" d="M158.46,478.384l61.3-11.174L301,480.151l-50.456,18.165Z" transform="translate(-138.656 -373.114)" fill="#3a3768"/>
    <path id="Path_366" data-name="Path 366" d="M239.872,556.29s-5.736,10.863.871,20.9l90.913,19.7s-5.641-8.661.3-20.667Z" transform="translate(-201.103 -454.33)" fill="#3a3768"/>
    <path id="Path_367" data-name="Path 367" d="M239.872,556.29s-5.736,10.863.871,20.9l90.913,19.7s-5.641-8.661.3-20.667L303.207,570Z" transform="translate(-201.103 -454.33)" opacity="0.1"/>
    <path id="Path_368" data-name="Path 368" d="M253.609,571.68s-3.274,7.946,0,13.092" transform="translate(-212.124 -463.071)" opacity="0.1"/>
    <path id="Path_369" data-name="Path 369" d="M341.513,655.338,392.27,633.68s2.836.612,1,2.692-50.779,21.046-50.779,21.046L250.6,635.638Z" transform="translate(-230.487 -513.728)" fill="#3a3768"/>
    <path id="Path_370" data-name="Path 370" d="M341.513,655.338,392.27,633.68s2.836.612,1,2.692-50.779,21.046-50.779,21.046L250.6,635.638Z" transform="translate(-230.487 -513.728)" opacity="0.1"/>
    <path id="Path_371" data-name="Path 371" d="M598.386,646.68s-4.894,5.873,0,14.683" transform="translate(-498.383 -522.856)" opacity="0.1"/>
    <rect id="Rectangle_314" data-name="Rectangle 314" width="23.143" height="0.245" transform="translate(98.546 131.953) rotate(-18.45)" opacity="0.1"/>
    <rect id="Rectangle_315" data-name="Rectangle 315" width="28.199" height="0.245" transform="translate(97.958 133.71) rotate(-20.82)" opacity="0.1"/>
    <rect id="Rectangle_316" data-name="Rectangle 316" width="32.685" height="0.245" transform="translate(97.533 135.743) rotate(-22.26)" opacity="0.1"/>
    <rect id="Rectangle_317" data-name="Rectangle 317" width="37.623" height="0.245" transform="translate(97.225 137.567) rotate(-24.31)" opacity="0.1"/>
    <rect id="Rectangle_318" data-name="Rectangle 318" width="41.149" height="0.245" transform="matrix(0.916, -0.401, 0.401, 0.916, 96.922, 138.431)" opacity="0.1"/>
    <rect id="Rectangle_319" data-name="Rectangle 319" width="49.242" height="0.245" transform="translate(96.176 139.928) rotate(-23.36)" opacity="0.1"/>
    <path id="Path_372" data-name="Path 372" d="M251.53,489.815l43.07-9.055,26.239,5.017-35.293,11.379Z" transform="translate(-207.908 -382.257)" fill="#fff" opacity="0.45"/>
    <path id="Path_373" data-name="Path 373" d="M673.786,563.51s2.224.9.92,2.283-51.376,15.88-51.376,15.88Z" transform="translate(-527.226 -457.151)" fill="#3a3768"/>
    <path id="Path_374" data-name="Path 374" d="M668.636,464.15s-5.548,12.155-1.143,22.392L623.2,500.368l-4.241.9L617,492.7l1.309-10.809v-5.915Z" transform="translate(-522.007 -380.091)" fill="#d5d6db"/>
    <path id="Path_375" data-name="Path 375" d="M167.89,368.356,229.2,357.18l81.237,12.941-50.459,18.165Z" transform="translate(-146.908 -285.242)" fill="#ff6ea1"/>
    <path id="Path_376" data-name="Path 376" d="M249.326,446.26s-5.744,10.863.864,20.9l90.913,19.7s-5.643-8.661.3-20.664Z" transform="translate(-221.352 -366.173)" fill="#ff6ea1"/>
    <path id="Path_377" data-name="Path 377" d="M249.326,446.26s-5.744,10.863.864,20.9l90.913,19.7s-5.643-8.661.3-20.664Z" transform="translate(-221.352 -366.173)" opacity="0.1"/>
    <path id="Path_378" data-name="Path 378" d="M263.045,461.65s-3.277,7.949,0,13.092" transform="translate(-219.25 -375.662)" opacity="0.1"/>
    <path id="Path_379" data-name="Path 379" d="M350.953,551.35l50.755-16.274s2.839.612,1,2.692-50.779,15.662-50.779,15.662L260.04,531.65Z" transform="translate(-238.754 -432.207)" fill="#ff6ea1"/>
    <path id="Path_380" data-name="Path 380" d="M350.953,551.35l50.755-16.274s2.839.612,1,2.692-50.779,15.662-50.779,15.662L260.04,531.65Z" transform="translate(-238.754 -432.207)" opacity="0.1"/>
    <path id="Path_381" data-name="Path 381" d="M607.826,536.65s-4.894,5.873,0,14.683" transform="translate(-506.004 -435.409)" opacity="0.1"/>
    <rect id="Rectangle_320" data-name="Rectangle 320" width="23.143" height="0.245" transform="translate(100.323 109.207) rotate(-18.45)" opacity="0.1"/>
    <rect id="Rectangle_321" data-name="Rectangle 321" width="28.199" height="0.245" transform="translate(99.724 111.025) rotate(-20.82)" opacity="0.1"/>
    <rect id="Rectangle_322" data-name="Rectangle 322" width="32.685" height="0.245" transform="translate(99.287 113.113) rotate(-22.26)" opacity="0.1"/>
    <rect id="Rectangle_323" data-name="Rectangle 323" width="37.623" height="0.245" transform="translate(98.972 115.007) rotate(-24.31)" opacity="0.1"/>
    <rect id="Rectangle_324" data-name="Rectangle 324" width="41.149" height="0.245" transform="matrix(0.916, -0.401, 0.401, 0.916, 98.66, 115.897)" opacity="0.1"/>
    <rect id="Rectangle_325" data-name="Rectangle 325" width="49.242" height="0.245" transform="translate(97.893 117.471) rotate(-23.36)" opacity="0.1"/>
    <path id="Path_382" data-name="Path 382" d="M260.96,379.785l43.07-9.055,26.239,5.017-35.293,11.379Z" transform="translate(-215.703 -294.77)" fill="#fff" opacity="0.3"/>
    <path id="Path_383" data-name="Path 383" d="M683.216,453.48s2.227.9.92,2.286-51.376,15.88-51.376,15.88Z" transform="translate(-534.961 -369.621)" fill="#ff6ea1"/>
    <path id="Path_384" data-name="Path 384" d="M373.38,149.883s-9.3-.56-8.213,5.964a1.592,1.592,0,0,0,.827,1.676s.017-.489.954-.321a4.171,4.171,0,0,0,1.013.049,2.11,2.11,0,0,0,1.236-.509h0s2.616-1.082,3.634-5.359c0,0,.754-.932.734-1.172l-1.576.671a2.824,2.824,0,0,1,.115,2.075s-.051-2.034-.355-1.987c-.061,0-.815.394-.815.394s.923,1.975.225,3.409c0,0,.264-2.433-.514-3.267l-1.106.646a4.882,4.882,0,0,1,.348,3.7s.188-2.552-.58-3.546l-1,.783s1.016,2.009.4,3.389c0,0-.081-2.971-.612-3.2a6.048,6.048,0,0,0-1.011,1.091s.7,1.468.262,2.229c0,0-.262-1.98-.489-1.99a6.587,6.587,0,0,0-.964,2.2,4.762,4.762,0,0,1,.751-2.335,2.621,2.621,0,0,0-1.336.693s.135-.927,1.554-1.008a6.015,6.015,0,0,1,.915-1.055,5.729,5.729,0,0,0-2.266.259,2.567,2.567,0,0,1,2.523-.489l.979-.808a8.444,8.444,0,0,0-2.643.027s.908-.773,2.91-.21l1.079-.644a9.806,9.806,0,0,0-2.525-.218,3.876,3.876,0,0,1,2.841.044l.768-.345s-1.158-.228-1.5-.264-.357-.13-.357-.13a4.04,4.04,0,0,1,2.178.245A9.712,9.712,0,0,0,373.38,149.883Z" transform="translate(-312.169 -123.815)" fill="#ff6ea1"/>
    <path id="Path_385" data-name="Path 385" d="M907.98,259.463s-9.3-.56-8.213,5.964a1.591,1.591,0,0,0,.827,1.676s.017-.489.954-.321a4.311,4.311,0,0,0,1.013.049,2.1,2.1,0,0,0,1.224-.509h0s2.619-1.082,3.634-5.359c0,0,.754-.932.734-1.172l-1.571.671a2.823,2.823,0,0,1,.115,2.075s-.051-2.034-.352-1.987c-.061,0-.817.394-.817.394s.923,1.975.228,3.409c0,0,.264-2.432-.516-3.267l-1.106.646a4.882,4.882,0,0,1,.348,3.7s.188-2.552-.58-3.546l-1,.783s1.013,2.009.394,3.389c0,0-.081-2.971-.612-3.2a6.136,6.136,0,0,0-1.011,1.091s.7,1.468.264,2.229c0,0-.264-1.98-.489-1.99a6.589,6.589,0,0,0-.964,2.2,4.747,4.747,0,0,1,.754-2.335,2.633,2.633,0,0,0-1.339.693s.137-.927,1.554-1.008a6.109,6.109,0,0,1,.915-1.057,5.752,5.752,0,0,0-2.266.262,2.567,2.567,0,0,1,2.523-.489l.979-.808a8.446,8.446,0,0,0-2.643.027s.905-.773,2.91-.21l1.077-.644a9.805,9.805,0,0,0-2.525-.218,3.876,3.876,0,0,1,2.841.044l.771-.345s-1.16-.228-1.5-.264-.357-.13-.357-.13a4.011,4.011,0,0,1,2.178.245A9.871,9.871,0,0,0,907.98,259.463Z" transform="translate(-744.468 -214.791)" fill="#ff6ea1" opacity="0.1"/>
    <path id="Path_386" data-name="Path 386" d="M431.3,297.93s-4.053-8.4-9.211-4.261a1.589,1.589,0,0,0-1.06,1.539s.428-.223.734.678a4.338,4.338,0,0,0,.45.905,2.112,2.112,0,0,0,1.05.832h0s2.22,1.757,6.451.558a4.186,4.186,0,0,0,1.375.061l-1.351-1.045a2.841,2.841,0,0,1-1.757,1.111s1.752-1.035,1.564-1.275c-.039-.049-.734-.521-.734-.521s-1.275,1.769-2.866,1.86c0,0,2.251-.954,2.6-2.043l-1.1-.651a4.883,4.883,0,0,1-3.064,2.109s2.32-1.079,2.812-2.234l-1.17-.489s-1.26,1.865-2.768,2c0,0,2.555-1.52,2.491-2.095a6.2,6.2,0,0,0-1.446-.35s-.935,1.319-1.816,1.319c0,0,1.6-1.2,1.5-1.39a6.456,6.456,0,0,0-2.4.245,4.765,4.765,0,0,1,2.406-.489,2.635,2.635,0,0,0-1.258-.83s.876-.333,1.637.864a6.037,6.037,0,0,1,1.368.284,5.746,5.746,0,0,0-1.331-1.848s1.131.228,1.647,1.958l1.187.47a8.163,8.163,0,0,0-1.312-2.293s1.116.414,1.6,2.447l1.087.626a9.683,9.683,0,0,0-1.04-2.31,3.878,3.878,0,0,1,1.346,2.5l.678.5s-.367-1.123-.489-1.437-.061-.377-.061-.377a4.016,4.016,0,0,1,.852,2.019A9.129,9.129,0,0,0,431.3,297.93Z" transform="translate(-357.539 -240.95)" fill="#ff6ea1" opacity="0.1"/>
    <path id="Path_387" data-name="Path 387" d="M815.075,194.31s-4.05-8.4-9.211-4.261a1.592,1.592,0,0,0-1.06,1.539s.431-.22.734.678a4.249,4.249,0,0,0,.453.908,2.1,2.1,0,0,0,1.047.83h0s2.222,1.757,6.451.56a4.206,4.206,0,0,0,1.378.059l-1.344-1.047a2.839,2.839,0,0,1-1.755,1.113s1.75-1.038,1.561-1.277c-.039-.049-.734-.521-.734-.521s-1.273,1.769-2.866,1.86c0,0,2.254-.954,2.6-2.041l-1.118-.646a4.885,4.885,0,0,1-3.064,2.109s2.32-1.082,2.814-2.237l-1.172-.489s-1.26,1.867-2.765,2c0,0,2.552-1.52,2.489-2.092a6.053,6.053,0,0,0-1.444-.35s-.935,1.317-1.818,1.317c0,0,1.6-1.2,1.5-1.39a6.471,6.471,0,0,0-2.4.245,4.762,4.762,0,0,1,2.406-.489,2.621,2.621,0,0,0-1.255-.83s.876-.333,1.637.864a6.057,6.057,0,0,1,1.368.286,5.726,5.726,0,0,0-1.334-1.85s1.131.23,1.647,1.97l1.189.47a8.165,8.165,0,0,0-1.312-2.3s1.116.414,1.6,2.447l1.089.626a9.773,9.773,0,0,0-1.042-2.31,3.865,3.865,0,0,1,1.346,2.5l.678.5s-.365-1.123-.489-1.436-.061-.374-.061-.374a4.026,4.026,0,0,1,.849,2.019A9.4,9.4,0,0,0,815.075,194.31Z" transform="translate(-668.033 -158.781)" fill="#ff6ea1" opacity="0.1"/>
    <path id="Path_388" data-name="Path 388" d="M867.943,364.114s-4.05-8.4-9.219-4.263a1.592,1.592,0,0,0-1.06,1.539s.431-.22.734.678a4.236,4.236,0,0,0,.45.908,2.1,2.1,0,0,0,1.047.83h0s2.222,1.76,6.453.56c0,0,1.18.2,1.375.059l-1.351-1.045a2.84,2.84,0,0,1-1.757,1.113s1.75-1.038,1.561-1.277c-.039-.049-.734-.521-.734-.521s-1.273,1.769-2.866,1.862c0,0,2.254-.957,2.6-2.043l-1.1-.651a4.875,4.875,0,0,1-3.064,2.109s2.32-1.082,2.814-2.237l-1.172-.489s-1.26,1.865-2.765,2c0,0,2.555-1.52,2.491-2.095a6.078,6.078,0,0,0-1.446-.35s-.935,1.317-1.818,1.317c0,0,1.6-1.2,1.5-1.39a6.471,6.471,0,0,0-2.4.245,4.777,4.777,0,0,1,2.408-.489,2.615,2.615,0,0,0-1.258-.83s.876-.335,1.637.864a6.037,6.037,0,0,1,1.368.284,5.771,5.771,0,0,0-1.331-1.85s1.131.23,1.647,1.97l1.187.47a8.128,8.128,0,0,0-1.312-2.293s1.116.411,1.6,2.447l1.089.624a9.773,9.773,0,0,0-1.042-2.31,3.875,3.875,0,0,1,1.348,2.5l.678.489s-.367-1.123-.489-1.436-.061-.374-.061-.374a4,4,0,0,1,.849,2.019A9.912,9.912,0,0,0,867.943,364.114Z" transform="translate(-710.8 -293.431)" fill="#ff6ea1" opacity="0.1"/>
    <ellipse id="Ellipse_66" data-name="Ellipse 66" cx="5.626" cy="0.629" rx="5.626" ry="0.629" transform="translate(34.135 160.919)" fill="#ff6ea1" opacity="0.1"/>
    <ellipse id="Ellipse_67" data-name="Ellipse 67" cx="5.626" cy="0.629" rx="5.626" ry="0.629" transform="translate(6.913 150.23)" fill="#ff6ea1" opacity="0.1"/>
    <ellipse id="Ellipse_68" data-name="Ellipse 68" cx="5.626" cy="0.629" rx="5.626" ry="0.629" transform="translate(56.047 168.018)" fill="#ff6ea1" opacity="0.1"/>
    <ellipse id="Ellipse_69" data-name="Ellipse 69" cx="5.626" cy="0.629" rx="5.626" ry="0.629" transform="translate(163.244 152.555)" fill="#ff6ea1" opacity="0.1"/>
    <ellipse id="Ellipse_70" data-name="Ellipse 70" cx="5.626" cy="0.629" rx="5.626" ry="0.629" transform="translate(131.845 149.503)" fill="#ff6ea1" opacity="0.1"/>
    <ellipse id="Ellipse_71" data-name="Ellipse 71" cx="6.654" cy="1.143" rx="6.654" ry="1.143" transform="translate(107.174 163.359)" fill="#ff6ea1" opacity="0.1"/>
    <path id="Path_389" data-name="Path 389" d="M673.11,790.14s-9.265,4.787-4.478,10.425a1.791,1.791,0,0,0,1.752,1.138s-.259-.475.734-.854a4.77,4.77,0,0,0,1-.531,2.351,2.351,0,0,0,.9-1.2h0s1.894-2.535.426-7.227c0,0,.191-1.326.024-1.542L672.34,791.9a3.153,3.153,0,0,1,1.3,1.928s-1.224-1.926-1.468-1.713c-.054.044-.558.844-.558.844s2.016,1.368,2.166,3.145c0,0-1.135-2.489-2.362-2.844l-.7,1.253s2.2,1.341,2.447,3.358c0,0-1.28-2.557-2.587-3.074l-.516,1.324s2.124,1.351,2.32,3.03c0,0-1.777-2.807-2.415-2.719a6.785,6.785,0,0,0-.348,1.627s1.5,1,1.527,1.99c0,0-1.385-1.75-1.6-1.635a7.376,7.376,0,0,0,.338,2.675,5.281,5.281,0,0,1-.614-2.675,2.936,2.936,0,0,0-.888,1.429s-.4-.967.915-1.857a6.77,6.77,0,0,1,.277-1.537,6.45,6.45,0,0,0-2.026,1.547s.223-1.27,2.151-1.9l.489-1.341a9.12,9.12,0,0,0-2.523,1.537s.428-1.26,2.675-1.865L671,793.2a11.233,11.233,0,0,0-2.55,1.224,4.334,4.334,0,0,1,2.756-1.583l.541-.771s-1.243.443-1.591.6-.416.081-.416.081a4.5,4.5,0,0,1,2.229-1.013A10.9,10.9,0,0,0,673.11,790.14Z" transform="translate(-556.303 -637.125)" fill="#ff6ea1"/>
    <path id="Path_390" data-name="Path 390" d="M547.37,135.756c-1.6-4.349-10.41-4.757-14.233-3.649a114.275,114.275,0,0,1-11.5,2.129l-.2-.188c.4-.117.406-.406.357-.834a13.056,13.056,0,0,1,.024-1.693,4.17,4.17,0,0,0,3.544-.8h0c2.2-.979,1.61-5.168,2.031-6.314a72.615,72.615,0,0,0,.807-8.418h.032l.017-.844c.022-.365.032-.578.032-.578s.215-6.152.636-7.4a64.727,64.727,0,0,0,.759-7.831v-.12l-.032-.533c.022-.389.032-.822.029-1.277,0-2.092-.218-4.728-.245-5.154v-.223c.017-.893-.1-5.367-3.9-7.058-1.4-.626-3.088-1.373-4.721-2.1-.421-3.634-1.383-7.249-1.3-10.91,0-.551.049-1.1.1-1.649,0,.159-.017.321-.02.489v1.067c.144-4.579,1.875-9.182,1.713-13.663-.015.438-.046.879-.088,1.319a14.225,14.225,0,0,0-.47-4.5,2.663,2.663,0,0,0-.768-1.395,3.164,3.164,0,0,0-1.341-.531,26.968,26.968,0,0,0-3.521-.656,5.436,5.436,0,0,0-.793-1.539c-2.481-3.406-6.157-6.607-10.5-7.342-2.18-.367-4.689-.061-6.172,1.5a4.632,4.632,0,0,0-.436.44c-.8.952-1.14,2.2-1.958,3.152-.054.064-.115.122-.174.184-1.6,1.432-4.094,1.73-5.873,3.015a7.056,7.056,0,0,0-.879.766,14.9,14.9,0,0,0-1.919,2.332,9.674,9.674,0,0,0-1.877,3.641c-.511,2.692,1.321,5.244,1.662,7.953.759,6.062-5.949,11.441-4.679,17.422a7.978,7.978,0,0,0,2.158,3.874c-2.616,2.369-4.843,4.667-4.843,4.667v.137h-.414l.042.489h-.042l.228,2.655-.228,3.867v.365h.015a61.84,61.84,0,0,0,.734,7.586c.421,1.246.634,7.4.634,7.4s.465,8.695.891,9.845-.179,5.328,2.031,6.314h0a4.65,4.65,0,0,0,2.22.92c-.113.915-.042,1.578.323,1.786a1.067,1.067,0,0,0,.514.147,5.449,5.449,0,0,0-.4.7,10.366,10.366,0,0,1-2.565-.6c-2.374-.979-10.251-3.181-12.539-1.632s-7.794,2.954-5.252,9.189,3.727,6.392,3.727,6.392a9.054,9.054,0,0,1,2.034,2.043c.764,1.148,7.877,3.774,9.657,3.774a17.421,17.421,0,0,1,2.264.113s-1.931,1.693-1.674,2.677-.587,8.859-.587,8.859,1.958,1.972,2.795-.614l.029.039c.157.213,1,1.175,2.6-.039a14.557,14.557,0,0,1,2.07-1.312l7.714-1.091a21.837,21.837,0,0,1,2.415-.017,5.047,5.047,0,0,0,3.181-1.184c1.6.607,3.394,1.27,4.248,1.512,1.733.489,9.7,2.626,11.558,1.958a2.587,2.587,0,0,0,1-.715l1.777.056-.832.166s1.62.027,3.823.056l-.093.054,2.763-.024c4.043.037,8.585.049,9.182-.086a64.5,64.5,0,0,1,7.224,0h.4s5.337-1.065,3.135-6.48c-1.693-4.16-6.9-5.369-9.209-5.7.651-.13,1.211-.23,1.583-.289,1.613-.245,4.745-1.713,5-2.215s2.88-1.958,3.558-2.787S548.977,140.1,547.37,135.756Zm-44.208,12.17-.262.086-.176.059-.338.333c-.269-.181-.558-.372-.859-.568C502.057,147.867,502.6,147.9,503.161,147.925Zm23.324,6.9Z" transform="translate(-401.497 -43.42)" fill="url(#linear-gradient)"/>
    <path id="Path_391" data-name="Path 391" d="M686.65,271.851s3.744,9.789,5.873,8.81,1.552-5.139,1.958-6.279.857-9.789.857-9.789.206-6.118.612-7.356a67.425,67.425,0,0,0,.734-7.78v-.12l-.4-7.1-2.286-.57-5.3,1.958-.734,4.192-.286,1.637-.122.7Z" transform="translate(-572.411 -202.166)" fill="#be6f72"/>
    <path id="Path_392" data-name="Path 392" d="M691.69,358.3s3.573,2.924,4.65,3.181,1.737,2.538,1.737,2.538" transform="translate(-576.004 -293.089)" opacity="0.1"/>
    <path id="Path_393" data-name="Path 393" d="M536.034,273.6s-3.744,9.789-5.873,8.81-1.552-5.139-1.958-6.279-.857-9.789-.857-9.789-.206-6.118-.612-7.356a67.412,67.412,0,0,1-.734-7.78v-.12l.406-7.1,2.286-.57,5.3,1.958.734,4.192.286,1.637.122.7Z" transform="translate(-442.447 -203.567)" fill="#be6f72"/>
    <rect id="Rectangle_326" data-name="Rectangle 326" width="8.357" height="13.026" transform="translate(104.095 26.746)" fill="#3e373a"/>
    <rect id="Rectangle_327" data-name="Rectangle 327" width="8.357" height="13.026" transform="translate(104.095 26.746)" opacity="0.1"/>
    <path id="Path_394" data-name="Path 394" d="M554.729,404.187s-2.856,3.14-1.8,3.71,7.914,11.257,7.914,11.257,22.514,2.773,26.76-1.388,4.16-11.592,4.16-11.592-3.411.734-3.783.335-2.415-2.322-2.415-2.322S556.686,402.434,554.729,404.187Z" transform="translate(-467.47 -329.668)" fill="#4b4b5b"/>
    <path id="Path_395" data-name="Path 395" d="M554.729,404.187s-2.856,3.14-1.8,3.71,7.914,11.257,7.914,11.257,22.514,2.773,26.76-1.388,4.16-11.592,4.16-11.592-3.411.734-3.783.335-2.415-2.322-2.415-2.322S556.686,402.434,554.729,404.187Z" transform="translate(-467.47 -329.668)" opacity="0.02"/>
    <path id="Path_396" data-name="Path 396" d="M576.349,174.905l-7.342,5.873-2.22.162-.815.059-13.687,1-14.194-1.038-2.112-.154-2.692-.2-5.629-5.384a96.387,96.387,0,0,1,7.474-7.148,15.333,15.333,0,0,1,3.622-2.42l.161-.056a4.028,4.028,0,0,0,1.552-1.082c2.756-2.841,5.3-9.852,5.3-9.852s12.155-6.279,10.687,1.958,5.465,6.2,5.465,6.2l2.286,1.043.9.414,2.3,1.055,5.2,2.384C576.687,169.6,576.349,174.905,576.349,174.905Z" transform="translate(-448.312 -125.711)" fill="#be6f72"/>
    <circle id="Ellipse_72" data-name="Ellipse 72" cx="10.932" cy="10.932" r="10.932" transform="translate(92.744 13.805)" opacity="0.1"/>
    <path id="Path_397" data-name="Path 397" d="M575.113,223.461H526v-.12l.406-7.1a96.385,96.385,0,0,1,7.474-7.148l30.835-1.224,1.434-1.512,5.2,2.384c4.08,1.875,3.752,7.178,3.752,7.178S575.653,222.066,575.113,223.461Z" transform="translate(-447.043 -172.996)" opacity="0.1"/>
    <path id="Path_398" data-name="Path 398" d="M575.113,222.461H526v-.12l.406-7.1a96.385,96.385,0,0,1,7.474-7.148l30.835-1.224,1.434-1.512,5.2,2.384c4.08,1.875,3.752,7.178,3.752,7.178S575.653,221.066,575.113,222.461Z" transform="translate(-447.043 -172.201)" fill="#e7c7ca"/>
    <path id="Path_399" data-name="Path 399" d="M584.349,187.321s7.748,9.872,18.068-.2,1.143,22.473,1.143,22.473l-22.269,2.643Z" transform="translate(-489.063 -156.483)" opacity="0.1"/>
    <path id="Path_400" data-name="Path 400" d="M584.349,189.321s7.748,9.872,18.068-.2,1.143,22.473,1.143,22.473l-22.269,2.643Z" transform="translate(-489.063 -158.078)" fill="#e7c7ca"/>
    <path id="Path_401" data-name="Path 401" d="M583.134,201.754l.82,12.5.879,4.16.67,3.181s1.713,24.472,1.224,25.7.245,2.2.347,2.853-.1,2.286-.022,3.02,0,1.06-1.875.8-4.488-.717-4.488-.717-6.607.489-8.891-.325a26.088,26.088,0,0,0-6.607-.817s-6.527.164-8.646-.081-3.265,2.611-4.65,1.794,1.63-8.727,2.609-11.012-1.3-8.076-1.3-8.076l2.937-16.291.653-3.693V203.136l.161-.056A4.028,4.028,0,0,0,558.5,202l.734,11.683,23,.817V201.35" transform="translate(-466.063 -170.549)" opacity="0.1"/>
    <path id="Path_402" data-name="Path 402" d="M583.134,199.754l.82,12.5.879,4.16.67,3.181s1.713,24.472,1.224,25.7.245,2.2.347,2.853-.1,2.286-.022,3.02,0,1.06-1.875.8-4.488-.717-4.488-.717-6.607.489-8.891-.325a26.087,26.087,0,0,0-6.607-.817s-6.527.164-8.646-.081-3.265,2.611-4.65,1.794,1.63-8.727,2.609-11.012-1.3-8.076-1.3-8.076l2.937-16.291.653-3.693V201.136l.161-.056A4.028,4.028,0,0,0,558.5,200l.734,11.683,23,.817V199.35" transform="translate(-466.063 -168.939)" fill="#e7c7ca"/>
    <path id="Path_403" data-name="Path 403" d="M575.215,58.791a2.7,2.7,0,0,0-.734-1.385,3,3,0,0,0-1.292-.529,25.53,25.53,0,0,0-3.4-.651,5.437,5.437,0,0,0-.734-1.525c-2.4-3.387-5.947-6.58-10.122-7.3-2.185-.379-4.718-.039-6.118,1.684-.768.947-1.1,2.2-1.875,3.132-1.5,1.806-4.195,2.029-6.079,3.426a11.262,11.262,0,0,0-2.447,2.831,9.713,9.713,0,0,0-1.808,3.619c-.489,2.67,1.275,5.215,1.6,7.909.734,6.027-5.726,11.375-4.505,17.321.712,3.468,3.916,5.91,7.229,7.148,1.167.438,2.5.874,3.047,1.994.245.489.286,1.055.516,1.549.773,1.649,3.316,1.713,4.681.511s1.8-3.145,1.958-4.958c.656-7.919-2.516-15.743-2.146-23.681.11-2.4.786-5.124,2.937-6.211,2.9-1.468,6.377.979,9.564.511a18.972,18.972,0,0,1,.915,11.578c-.507,2.112-1.383,4.16-1.446,6.338-.1,3.316,1.693,6.346,3.24,9.277a4.935,4.935,0,0,1,.653,1.789,4.312,4.312,0,0,1-.35,1.872c-.874,2.352-2.381,4.535-2.552,7.038a1.138,1.138,0,0,0,.184.837,1.052,1.052,0,0,0,.631.284c2.643.453,4.929-1.889,6.218-4.241a19.881,19.881,0,0,0,2.452-8.448c.267-4.982-1.52-9.884-1.41-14.872C574.153,69.969,576.715,64.26,575.215,58.791Z" transform="translate(-454.984 -46.314)" opacity="0.1"/>
    <path id="Path_404" data-name="Path 404" d="M576.215,57.791a2.7,2.7,0,0,0-.734-1.385,3,3,0,0,0-1.292-.529,25.526,25.526,0,0,0-3.4-.651,5.436,5.436,0,0,0-.734-1.525c-2.4-3.387-5.947-6.58-10.122-7.3-2.185-.379-4.718-.039-6.118,1.684-.768.947-1.1,2.2-1.875,3.132-1.5,1.806-4.194,2.029-6.079,3.426a11.263,11.263,0,0,0-2.447,2.831,9.713,9.713,0,0,0-1.808,3.619c-.489,2.67,1.275,5.215,1.6,7.909.734,6.027-5.726,11.375-4.505,17.321.712,3.468,3.915,5.91,7.229,7.148,1.167.438,2.5.874,3.047,1.994.245.489.286,1.055.516,1.549.773,1.649,3.316,1.713,4.681.511s1.8-3.145,1.958-4.958c.656-7.919-2.516-15.743-2.146-23.681.11-2.4.786-5.124,2.937-6.211,2.9-1.468,6.377.979,9.564.511a18.973,18.973,0,0,1,.915,11.578c-.507,2.112-1.383,4.16-1.446,6.338-.1,3.316,1.693,6.346,3.24,9.277a4.936,4.936,0,0,1,.653,1.789,4.311,4.311,0,0,1-.35,1.872c-.874,2.352-2.381,4.535-2.552,7.038a1.138,1.138,0,0,0,.184.837,1.052,1.052,0,0,0,.631.284c2.643.453,4.929-1.889,6.218-4.241a19.882,19.882,0,0,0,2.452-8.448c.267-4.982-1.52-9.884-1.41-14.872C575.153,68.969,577.715,63.26,576.215,57.791Z" transform="translate(-455.801 -45.559)" fill="#3e373a"/>
    <path id="Path_405" data-name="Path 405" d="M581.79,471.469l9.708.311-1.392-7.2-7.437.707Z" transform="translate(-470.618 -368.504)" fill="#c3c7d9"/>
    <path id="Path_406" data-name="Path 406" d="M654.069,419.6c-.653.815-3.181,2.283-3.426,2.773s-3.262,1.958-4.814,2.2-6.444,1.307-7.342,1.877a71.548,71.548,0,0,1-9.2,2.435,26.131,26.131,0,0,1-2.787.5c-1.468.081-17.536-5.384-17.536-5.384l3.1-3.181.171-.059c.876-.3,4.924-1.664,7.17-2.315,2.53-.734,5.467-3.752,5.467-3.752s4.322-1.468,4.894-1.632-1.468-5.709-1.468-5.709,9.38-1.3,13.051-2.406,12.155-.7,13.7,3.629S654.732,418.788,654.069,419.6Z" transform="translate(-514.591 -331.172)" fill="#4b4b5b"/>
    <path id="Path_407" data-name="Path 407" d="M554.678,496.066s-1.875,1.958-3.752,1.8-8.44.489-8.44.489a13.159,13.159,0,0,0-3.306,1.916c-1.534,1.209-2.349.245-2.5.039l-.027-.039c-.817,2.572-2.692.612-2.692.612s.815-7.831.565-8.81,1.613-2.66,1.613-2.66l2.2-.56,5.58-1.429,7.995,2.773Z" transform="translate(-450 -396.235)" fill="#e7c7ca"/>
    <path id="Path_408" data-name="Path 408" d="M538.331,493.26l-1.652,11.458-.027-.039c-.817,2.572-2.692.612-2.692.612s.815-7.831.565-8.81,1.613-2.66,1.613-2.66Z" transform="translate(-448.336 -400.74)" opacity="0.1"/>
    <path id="Path_409" data-name="Path 409" d="M599,360.08s4.322,1.468,8.076,0" transform="translate(-501.281 -294.196)" opacity="0.1"/>
    <path id="Path_410" data-name="Path 410" d="M659.29,371.42a3.57,3.57,0,0,0,3.181,0" transform="translate(-549.427 -303.161)" opacity="0.1"/>
    <path id="Path_411" data-name="Path 411" d="M659.29,378.831s3.017.4,3.59-.411" transform="translate(-549.476 -308.712)" opacity="0.1"/>
    <path id="Path_412" data-name="Path 412" d="M655.29,393.463s5.668-.734,7.075-1.713" transform="translate(-546.671 -319.346)" opacity="0.1"/>
    <path id="Path_413" data-name="Path 413" d="M584.62,391.75s3.181,1.794,5.548,1.713" transform="translate(-489.381 -319.346)" opacity="0.1"/>
    <path id="Path_414" data-name="Path 414" d="M629.274,479.3a26.125,26.125,0,0,1-2.787.5c-1.468.081-17.537-5.384-17.537-5.384l3.1-3.181.171-.059c.489.345.891.641,1.177.866,1.348,1.062,2.65-.325,3.14-.325s4.73,3.507,4.73,3.507,3.915.9,4.569,1.713,2.937.653,3.343,1.224A2.183,2.183,0,0,1,629.274,479.3Z" transform="translate(-510.805 -382.84)" opacity="0.1"/>
    <path id="Path_415" data-name="Path 415" d="M494.714,408.812s-3.96.228-6.243-.734-9.87-3.181-12.072-1.622-7.506,2.937-5.058,9.138,3.59,6.363,3.59,6.363a8.835,8.835,0,0,1,1.958,2.031c.734,1.143,7.586,3.752,9.3,3.752a14.22,14.22,0,0,1,8.971,2.937,18.438,18.438,0,0,0,8.076,3.265s5.384,2.2,7.06,2.692,9.336,2.609,11.132,1.958,2.937-4.733,2.937-4.733.815-3.671.406-4.241-2.692-.409-3.343-1.224-4.569-1.713-4.569-1.713-4.231-3.509-4.721-3.509-1.791,1.385-3.14.325a71.626,71.626,0,0,0-8.445-5.384C497.455,416.479,494.714,408.812,494.714,408.812Z" transform="translate(-402.337 -333.067)" fill="#4b4b5b"/>
    <path id="Path_416" data-name="Path 416" d="M536.27,427.128a4.674,4.674,0,0,1,4.011,1.06c1.958,1.632,8.546,4.909,8.546,4.909" transform="translate(-451.01 -347.615)" opacity="0.1"/>
    <path id="Path_417" data-name="Path 417" d="M704.319,427s-8.729,1.321-10.359,3.115" transform="translate(-578.368 -347.371)" opacity="0.1"/>
    <path id="Path_418" data-name="Path 418" d="M708.053,499.656h-.384a65.818,65.818,0,0,0-6.957,0c-1.06.245-15.092,0-15.092,0l2.743-.57s-1.018-3.568-.372-3.864c0,0-3.671-2.418-.9-4.05a8.586,8.586,0,0,1,5.751-.945l6.948-2.354,1.334-.453s7.831.409,9.95,5.792S708.053,499.656,708.053,499.656Z" transform="translate(-573.854 -396.064)" fill="#e7c7ca"/>
    <path id="Path_419" data-name="Path 419" d="M751.777,499.694h-.384c2.278-1.879,7.432-7.6-7.882-11.771l1.334-.453s7.831.409,9.95,5.792S751.777,499.694,751.777,499.694Z" transform="translate(-618.669 -396.093)" opacity="0.1"/>
    <circle id="Ellipse_73" data-name="Ellipse 73" cx="0.428" cy="0.428" r="0.428" transform="translate(121.222 96.64)" fill="#4b4b5b"/>
    <circle id="Ellipse_74" data-name="Ellipse 74" cx="0.428" cy="0.428" r="0.428" transform="translate(119.26 97.241)" fill="#4b4b5b"/>
    <g id="Group_94" data-name="Group 94" transform="translate(82.799 15.396)" opacity="0.1">
      <path id="Path_420" data-name="Path 420" d="M615.738,115.513a18.987,18.987,0,0,0-1.4-7.865c-3.181.475-6.666-1.98-9.564-.511-2.144,1.087-2.817,3.81-2.937,6.211-.029.634-.034,1.268-.022,1.9,0-.225,0-.453.022-.678.113-2.4.786-5.124,2.937-6.211,2.9-1.468,6.377.979,9.564.511A18.939,18.939,0,0,1,615.738,115.513Z" transform="translate(-586.392 -106.576)"/>
      <path id="Path_421" data-name="Path 421" d="M552.715,116.582a8.159,8.159,0,0,0-.032-1.6c-.259-2.154-1.436-4.212-1.649-6.311-.274,2.533,1.339,4.965,1.649,7.535A1.527,1.527,0,0,1,552.715,116.582Z" transform="translate(-548.022 -108.092)"/>
      <path id="Path_422" data-name="Path 422" d="M556.41,208.527c-.152,1.816-.58,3.756-1.958,4.96s-3.915,1.138-4.681-.511c-.245-.489-.281-1.06-.519-1.549-.543-1.121-1.879-1.556-3.047-1.994-3.316-1.241-6.514-3.671-7.227-7.148a7.511,7.511,0,0,1-.13-.954,7.713,7.713,0,0,0,.13,2.178c.712,3.468,3.916,5.908,7.227,7.148,1.167.438,2.5.874,3.047,1.994.245.489.286,1.055.519,1.549.771,1.649,3.313,1.713,4.681.511s1.794-3.145,1.958-4.96a27.958,27.958,0,0,0,.076-2.873C556.486,207.433,556.454,207.981,556.41,208.527Z" transform="translate(-538.823 -178.077)"/>
      <path id="Path_423" data-name="Path 423" d="M687.93,118.835v1.06c.137-4.552,1.806-9.128,1.642-13.584C689.445,110.431,688.023,114.645,687.93,118.835Z" transform="translate(-651.441 -106.31)"/>
      <path id="Path_424" data-name="Path 424" d="M654.623,198.448a3.156,3.156,0,0,0,.056-.883,4.894,4.894,0,0,0-.653-1.789c-1.415-2.692-3.027-5.447-3.218-8.435,0,.127-.017.245-.02.382-.1,3.313,1.691,6.346,3.238,9.277a5.874,5.874,0,0,1,.6,1.449Z" transform="translate(-623.385 -167.51)"/>
      <path id="Path_425" data-name="Path 425" d="M664.293,216.749a19.914,19.914,0,0,1-2.469,8.448c-1.292,2.352-3.575,4.694-6.221,4.241a1.04,1.04,0,0,1-.631-.286.611.611,0,0,1-.115-.191c-.029.191-.054.384-.068.58a1.128,1.128,0,0,0,.183.835,1.04,1.04,0,0,0,.631.286c2.645.453,4.929-1.889,6.221-4.241a19.914,19.914,0,0,0,2.469-8.448c.029-.573.032-1.143.015-1.713C664.3,216.424,664.3,216.585,664.293,216.749Z" transform="translate(-626.397 -189.353)"/>
    </g>
    <path id="Path_426" data-name="Path 426" d="M695.31,509.572a8.659,8.659,0,0,0,10.278-3.152" transform="translate(-579.45 -410.36)" fill="none" stroke="#000" stroke-miterlimit="10" stroke-width="1" opacity="0.1"/>
    <path id="Path_427" data-name="Path 427" d="M700.29,533.248a12.076,12.076,0,0,1,11.5-.108" transform="translate(-583.647 -430.231)" fill="none" stroke="#000" stroke-miterlimit="10" stroke-width="1" opacity="0.1"/>
    <path id="Path_428" data-name="Path 428" d="M561.93,527.059s2.124-4.792,7.8-1.138" transform="translate(-471.279 -424.614)" fill="none" stroke="#000" stroke-miterlimit="10" stroke-width="1" opacity="0.1"/>
    <path id="Path_429" data-name="Path 429" d="M533.79,230.473l4.331-3.915s16.8-1.1,17.49,4.608c0,0,5.954-6.769,18.476-5.261l5.3,4.219-14.644,6.426-14.23,4.936-10.481-4.691Z" transform="translate(-452.902 -188.313)" opacity="0.1"/>
    <path id="Path_430" data-name="Path 430" d="M533.79,231.473l4.331-3.915s16.8-1.1,17.49,4.608c0,0,5.954-6.769,18.476-5.261l5.3,4.219-14.644,6.426-14.23,4.936-10.481-4.691Z" transform="translate(-452.902 -189.108)" fill="#d5d6db"/>
    <path id="Path_431" data-name="Path 431" d="M437.38,204.83l1.916,22.923,20.312,1.02-.881-22.825-.017-.384Z" transform="translate(-355.09 -163.211)" opacity="0.1"/>
    <path id="Path_432" data-name="Path 432" d="M437.38,202.83l1.916,22.923,20.312,1.02-.881-22.825-.017-.384Z" transform="translate(-355.09 -161.617)" fill="#ff6ea1"/>
    <path id="Path_433" data-name="Path 433" d="M570.663,202.83l-20.953,3.142V229l20.476-2.959Z" transform="translate(-446.113 -161.725)" opacity="0.1"/>
    <path id="Path_434" data-name="Path 434" d="M570.663,200.83l-20.953,3.142V227l20.476-2.959Z" transform="translate(-446.113 -160.131)" fill="#ff6ea1"/>
    <path id="Path_435" data-name="Path 435" d="M580.208,223.79l-11.318,1.258.247,3.857L580.2,227.7Z" transform="translate(-460.389 -177.416)" fill="#fff" opacity="0.3"/>
    <path id="Path_436" data-name="Path 436" d="M536.772,327.074l1.153,3.1a3.851,3.851,0,0,0,3.588.734c1.875-.734,3.509-1.1,4.324-1.813s1.958-4.3,1.958-4.3,1.143-3.915,2.283-4.894,4.16-14.465,0-13.146-7.342,13.555-7.342,13.555a2.9,2.9,0,0,1-1.794.979c-1.06.083-3.181-.164-3.59.734S535.548,325.28,536.772,327.074Z" transform="translate(-451.368 -253.206)" fill="#be6f72"/>
    <path id="Path_437" data-name="Path 437" d="M619.325,254.352a7.048,7.048,0,0,1-6.145-1.532l.883,22.822a6.228,6.228,0,0,0,5.261,1.737Z" transform="translate(-512.526 -210.307)" opacity="0.1"/>
    <path id="Path_438" data-name="Path 438" d="M619.325,252.352a7.048,7.048,0,0,1-6.145-1.532l.883,22.822a6.228,6.228,0,0,0,5.261,1.737Z" transform="translate(-512.526 -208.713)" fill="#ff6ea1"/>
    <path id="Path_439" data-name="Path 439" d="M619.325,252.352a7.048,7.048,0,0,1-6.145-1.532l.883,22.822a6.228,6.228,0,0,0,5.261,1.737Z" transform="translate(-512.526 -208.713)" opacity="0.1"/>
    <path id="Path_440" data-name="Path 440" d="M640.29,239.55s8.524-2.606,10.746-2.239" transform="translate(-534.994 -196.998)" opacity="0.1"/>
    <path id="Path_441" data-name="Path 441" d="M571.572,237.286s-8.262-1.958-9.642-1.4" transform="translate(-471.472 -195.789)" opacity="0.1"/>
    <path id="Path_442" data-name="Path 442" d="M662.25,243.689s5.7-2.09,7.76-1.1" transform="translate(-552.383 -200.965)" opacity="0.1"/>
    <path id="Path_443" data-name="Path 443" d="M650.52,448.9a18.74,18.74,0,0,1,2.809-1.745,45.842,45.842,0,0,0,4.16-2.543" transform="translate(-542.802 -361.415)" opacity="0.1"/>
    <path id="Path_444" data-name="Path 444" d="M542.217,360.08s-3.575,2.924-4.65,3.181-1.737,2.538-1.737,2.538" transform="translate(-450.04 -294.5)" opacity="0.1"/>
    <path id="Path_445" data-name="Path 445" d="M667.711,325.317l-1.14,3.108a3.854,3.854,0,0,1-3.59.734c-1.877-.734-3.507-1.1-4.324-1.813s-1.958-4.3-1.958-4.3-1.14-3.916-2.283-4.894-4.16-14.465,0-13.146,7.342,13.555,7.342,13.555a2.9,2.9,0,0,0,1.794.979c1.06.083,3.181-.164,3.59.734S668.935,323.53,667.711,325.317Z" transform="translate(-545.371 -251.811)" fill="#be6f72"/>
    <path id="Path_446" data-name="Path 446" d="M707.15,364.94s2.337,1.5,2.327,3.3" transform="translate(-587.962 -298.204)" opacity="0.1"/>
    <circle id="Ellipse_75" data-name="Ellipse 75" cx="10.932" cy="10.932" r="10.932" transform="translate(92.774 13.269)" fill="#be6f72"/>
    <path id="Path_447" data-name="Path 447" d="M581.364,94.73a22.406,22.406,0,0,0,3.756-1.422c2.836-1,5.974-.313,8.844.585a11.47,11.47,0,0,0,3.375.734,3.415,3.415,0,0,0,2.971-1.468,3.319,3.319,0,0,0-.02-3.066,8.636,8.636,0,0,0-2-2.464c-2.545-2.4-5.7-4.65-9.194-4.4a12.653,12.653,0,0,0-4.04,1.158,44.543,44.543,0,0,0-4.743,2.388c-1.177.683-3.357,1.6-4.035,2.844C574.739,92.425,578.966,95.107,581.364,94.73Z" transform="translate(-484.561 -73.463)" fill="#3e373a"/>
    <path id="Path_448" data-name="Path 448" d="M600.307,113.7a3.415,3.415,0,0,1-2.971,1.468,11.479,11.479,0,0,1-3.377-.719c-2.871-.9-6.005-1.583-8.844-.585a21.3,21.3,0,0,1-3.756,1.419c-1.933.3-5.046-1.38-5.384-3.521-.379,2.474,3.23,4.593,5.384,4.256a22.521,22.521,0,0,0,3.756-1.419c2.839-1,5.974-.313,8.844.585a11.014,11.014,0,0,0,3.377.719,3.442,3.442,0,0,0,2.971-1.468,2.866,2.866,0,0,0,.343-1.789,2.639,2.639,0,0,1-.343,1.055Z" transform="translate(-484.558 -95.03)" opacity="0.1"/>
    <path id="Path_449" data-name="Path 449" d="M1025.675,661.63s1.451,1.9-.67,4.762-3.869,5.284-3.164,7.07c0,0,3.2-5.32,5.8-5.4S1028.536,664.828,1025.675,661.63Z" transform="translate(-846.064 -534.366)" fill="#ff6ea1"/>
    <path id="Path_450" data-name="Path 450" d="M1025.931,661.63a2.347,2.347,0,0,1,.3.595c2.54,2.986,3.9,5.773,1.451,5.841-2.276.066-5,4.136-5.658,5.161a2.384,2.384,0,0,0,.076.245s3.2-5.32,5.8-5.4S1028.791,664.828,1025.931,661.63Z" transform="translate(-846.32 -534.367)" opacity="0.1"/>
    <path id="Path_451" data-name="Path 451" d="M1047.965,670.192c0,.668-.076,1.209-.167,1.209s-.169-.541-.169-1.209.093-.352.186-.352S1047.965,669.524,1047.965,670.192Z" transform="translate(-865.663 -539.569)" fill="#ffd037"/>
    <path id="Path_452" data-name="Path 452" d="M1049.261,673.317c-.585.318-1.1.511-1.14.431s.394-.406.979-.734.355-.088.4,0S1049.848,673,1049.261,673.317Z" transform="translate(-866.031 -541.925)" fill="#ffd037"/>
    <path id="Path_453" data-name="Path 453" d="M996.615,661.63s-1.451,1.9.671,4.762,3.869,5.284,3.162,7.07c0,0-3.2-5.32-5.8-5.4S993.761,664.828,996.615,661.63Z" transform="translate(-824.673 -534.366)" fill="#ff6ea1"/>
    <path id="Path_454" data-name="Path 454" d="M996.615,661.63a2.349,2.349,0,0,0-.3.595c-2.54,2.986-3.9,5.773-1.451,5.841,2.273.066,5,4.136,5.658,5.161a1.9,1.9,0,0,1-.078.245s-3.2-5.32-5.8-5.4S993.761,664.828,996.615,661.63Z" transform="translate(-824.673 -534.367)" opacity="0.1"/>
    <path id="Path_455" data-name="Path 455" d="M995.64,670.192c0,.668.073,1.209.166,1.209s.169-.541.169-1.209-.1-.352-.186-.352S995.64,669.524,995.64,670.192Z" transform="translate(-826.396 -539.569)" fill="#ffd037"/>
    <path id="Path_456" data-name="Path 456" d="M990.761,673.317c.585.318,1.1.511,1.14.431s-.394-.406-.979-.734-.355-.088-.4,0S990.174,673,990.761,673.317Z" transform="translate(-822.441 -541.925)" fill="#ffd037"/>
    <ellipse id="Ellipse_76" data-name="Ellipse 76" cx="15.173" cy="2.327" rx="15.173" ry="2.327" transform="translate(160.604 143.26)" fill="#ff6ea1" opacity="0.1"/>
    <path id="Path_457" data-name="Path 457" d="M1006.021,696.8l-.074.592-.1.837-.042.35-.1.837-.044.35-.1.834-1.162,9.52c-.1.849-1.49,1.512-3.167,1.512h-6.032c-1.676,0-3.061-.663-3.167-1.512l-1.162-9.52-.1-.834-.042-.35-.1-.837-.044-.35-.1-.837-.073-.592c-.056-.49.693-.886,1.642-.886h12.339C1005.329,695.91,1006.08,696.314,1006.021,696.8Z" transform="translate(-822.436 -565.955)" fill="#65617d"/>
    <path id="Path_458" data-name="Path 458" d="M917.6,658.53l-.1.837h-15.27l-.1-.837Z" transform="translate(-734.092 -527.097)" fill="#9d9cb5"/>
    <path id="Path_459" data-name="Path 459" d="M917.9,663.38l-.1.837H902.823l-.1-.837Z" transform="translate(-734.538 -530.76)" fill="#9d9cb5"/>
    <path id="Path_460" data-name="Path 460" d="M918.214,668.23l-.1.837H903.42l-.1-.837Z" transform="translate(-734.991 -534.423)" fill="#9d9cb5"/>
  </g>
</svg>
