<svg xmlns="http://www.w3.org/2000/svg" width="199.803" height="169.354" viewBox="0 0 199.803 169.354">
  <g id="Group_119" data-name="Group 119" transform="translate(-65.256 -132.476)">
    <g id="Group_112" data-name="Group 112" transform="translate(177.382 254.307)">
      <path id="Path_569" data-name="Path 569" d="M306.664,138.694s-17.6-3.936,4.795-26.964c0,0,9.655,9.151,6.113,20.526a9.351,9.351,0,0,1-10.648,6.493Z" transform="translate(-291.053 -109.215)" fill="#ff6ea1"/>
      <path id="Path_570" data-name="Path 570" d="M307.071,138.694c-.386-.086-17.227-4.325,4.795-26.964,0,0,9.655,9.151,6.113,20.526a9.351,9.351,0,0,1-10.647,6.493Z" transform="translate(-291.461 -109.215)" fill="#fff" opacity="0.4"/>
      <path id="Path_571" data-name="Path 571" d="M357,138.835s9.3-14.007,4.564-27.095" transform="translate(-341.156 -109.224)" fill="none" stroke="#535461" stroke-miterlimit="10" stroke-width="1"/>
      <path id="Path_572" data-name="Path 572" d="M244.312,128.664s5.144-3.828-1.316-17.227c0,0-8.614-10.647,0-20.7,0,0-18.783.479-18.424,17.945s9.391,19.979,9.391,19.979Z" transform="translate(-224.567 -90.736)" fill="#ff6ea1"/>
      <path id="Path_573" data-name="Path 573" d="M300.968,128.638s-1.3-9.212-4.765-14.835a12.06,12.06,0,0,1-1.458-3.678,15.057,15.057,0,0,1,4.24-14.083l5.473-5.332" transform="translate(-286.028 -90.71)" fill="none" stroke="#535461" stroke-miterlimit="10" stroke-width="2"/>
      <path id="Path_574" data-name="Path 574" d="M455.236,150.69s1.182,1.546-.546,3.879-3.151,4.307-2.576,5.757c0,0,2.606-4.333,4.727-4.394S457.569,153.3,455.236,150.69Z" transform="translate(-424.778 -143.514)" fill="#ff6ea1"/>
      <path id="Path_575" data-name="Path 575" d="M455.716,150.69a1.913,1.913,0,0,1,.239.485c2.07,2.431,3.172,4.7,1.183,4.758-1.853.053-4.076,3.367-4.608,4.2a1.8,1.8,0,0,0,.063.19s2.606-4.333,4.727-4.394S458.049,153.3,455.716,150.69Z" transform="translate(-425.258 -143.514)" opacity="0.1"/>
      <path id="Path_578" data-name="Path 578" d="M407.484,150.69s-1.182,1.546.546,3.879,3.151,4.307,2.576,5.757c0,0-2.606-4.333-4.727-4.394S405.148,153.3,407.484,150.69Z" transform="translate(-383.266 -143.514)" fill="#ff6ea1"/>
      <path id="Path_579" data-name="Path 579" d="M407.471,150.69a1.915,1.915,0,0,0-.239.485c-2.07,2.431-3.172,4.7-1.183,4.758,1.853.053,4.076,3.367,4.608,4.2a1.8,1.8,0,0,1-.063.19s-2.609-4.334-4.73-4.393S405.136,153.3,407.471,150.69Z" transform="translate(-383.253 -143.514)" opacity="0.1"/>
      <path id="Path_580" data-name="Path 580" d="M408.62,164.589c0,.544.061.985.136.985s.136-.441.136-.985-.077-.288-.152-.288S408.62,164.046,408.62,164.589Z" transform="translate(-386.601 -155.444)" fill="#ffd037"/>
      <path id="Path_581" data-name="Path 581" d="M400.183,169.839c.479.261.894.418.93.352s-.322-.33-.8-.591-.29-.071-.325,0S399.705,169.578,400.183,169.839Z" transform="translate(-378.917 -160.044)" fill="#ffd037"/>
    </g>
    <g id="Group_118" data-name="Group 118" transform="translate(65.256 131.476)">
      <g id="undraw_Books_l33t" transform="translate(0 0)">
        <path id="Path_466" data-name="Path 466" d="M82,165.014V316.4H281.8V165.014ZM281.363,315.789H82.441V165.621H281.362Z" transform="translate(-82 -146.042)" fill="none"/>
        <path id="Path_467" data-name="Path 467" d="M578.313,633.133q-15.474-2.428-29.755-4.13l3.666-7.349c-1.273-.425-6.787,3.826-6.787,3.826l4.666-21.256c-6.363.85-9.333,22.531-9.333,22.531l-7.212-7.227,3.55,8.182a656.059,656.059,0,0,0-75.41-3.806l3.138-6.29c-1.273-.425-6.787,3.826-6.787,3.826l4.666-21.256c-6.363.85-9.333,22.531-9.333,22.531l-7.212-7.227,3.76,8.666a422.4,422.4,0,0,0-43.279,3.493c3.131-9.776,14.066-19.174,14.066-19.174-8.408,2.621-12.782,6.892-15.046,10.851a171.046,171.046,0,0,1,9.108-59.1s-16.968,38.261-14.423,63.768l.323,4.531c-14.762,2.308-22.17,4.609-22.17,4.609Z" transform="translate(-378.51 -464.018)" fill="#3f3d56"/>
        <g id="Group_121" data-name="Group 121" transform="translate(49.963 1)">
          <g id="Group_117" data-name="Group 117">
            <g id="Group_116" data-name="Group 116">
              <path id="Path_468" data-name="Path 468" d="M387.127,85.873,353.51,126.662l49.754,58.718,33.169-39Z" transform="translate(-353.286 -85.873)" fill="#ff6ea1"/>
              <path id="Path_469" data-name="Path 469" d="M387.127,85.873,353.51,126.662l49.754,58.718,33.169-39Z" transform="translate(-353.286 -85.873)" opacity="0.1"/>
              <path id="Path_470" data-name="Path 470" d="M439.739,304.966h0a16.9,16.9,0,0,1,2.741-3.66L473.356,270s10.758-1.793,13,3.586l-39.444,32.272Z" transform="translate(-438.17 -263.73)" fill="#f2f2f2"/>
              <path id="Path_471" data-name="Path 471" d="M434.8,302.026l45.719,69.924s4.482,3.138,8.965,1.345l46.84-31.6-49.753-75.3-44.823,34.962Z" transform="translate(-434.805 -261.461)" fill="#ff6ea1"/>
            </g>
            <rect id="Rectangle_328" data-name="Rectangle 328" width="35.328" height="0.726" transform="matrix(0.812, -0.584, 0.584, 0.812, 17.492, 36.457)" fill="#3f3d56"/>
            <rect id="Rectangle_329" data-name="Rectangle 329" width="0.726" height="68.25" transform="matrix(0.834, -0.552, 0.552, 0.834, 16.507, 44.574)" fill="#3f3d56"/>
            <rect id="Rectangle_330" data-name="Rectangle 330" width="37.832" height="0.727" transform="translate(58.729 102.805) rotate(-36.344)" fill="#3f3d56"/>
            <rect id="Rectangle_331" data-name="Rectangle 331" width="0.726" height="68.263" transform="translate(51.025 17.239) rotate(-34.838)" fill="#3f3d56"/>
            <rect id="Rectangle_332" data-name="Rectangle 332" width="48.142" height="0.448" transform="translate(4.107 38.383) rotate(-42.545)" fill="#3f3d56"/>
            <rect id="Rectangle_333" data-name="Rectangle 333" width="49.447" height="0.448" transform="translate(5.462 38.834) rotate(-41.439)" fill="#3f3d56"/>
            <rect id="Rectangle_334" data-name="Rectangle 334" width="50.096" height="0.448" transform="matrix(0.768, -0.64, 0.64, 0.768, 6.367, 38.838)" fill="#3f3d56"/>
          </g>
        </g>
      </g>
      <g id="Group_95" data-name="Group 95" transform="translate(91.252 47.442)">
        <path id="Path_472" data-name="Path 472" d="M57.57,34.75c.051.026.1.055.153.079a.884.884,0,0,1-.341,1.693c-.421.008-.842,0-1.263,0A4.46,4.46,0,0,0,52.9,37.868a5.308,5.308,0,0,0-1.335,1.879,4.119,4.119,0,0,0-.285,1.47q-.005,4.887,0,9.775a3.821,3.821,0,0,0,.577,2.065,5.232,5.232,0,0,0,3.066,2.462,4.513,4.513,0,0,0,1.136.155q4.788.018,9.575,0a4.4,4.4,0,0,0,3.16-1.329,4.751,4.751,0,0,0,1.339-1.9A7.233,7.233,0,0,0,70.418,51c.047-.453.009-.915.012-1.373a.877.877,0,0,1,.894-.922.864.864,0,0,1,.875.916,21.608,21.608,0,0,1-.115,2.407,5.605,5.605,0,0,1-1.42,2.929,6.74,6.74,0,0,1-3.324,2.25c-.4.106-.807.164-1.211.244H55.575c-.46-.1-.928-.166-1.377-.3a6.739,6.739,0,0,1-3.166-2.205A5.963,5.963,0,0,1,49.7,52.458c-.085-.341-.137-.69-.2-1.035V40.781c.019-.107.043-.214.055-.322a7.033,7.033,0,0,1,4.6-5.4c.464-.136.946-.209,1.419-.311Z" transform="translate(-49.5 -34.75)" fill="#fff"/>
        <path id="Path_473" data-name="Path 473" d="M179.628,67.151c-.551.554-1.05,1.057-1.551,1.558q-4.49,4.491-8.98,8.983a.947.947,0,0,1-.889.333.879.879,0,0,1-.544-1.4,2.159,2.159,0,0,1,.21-.227q5.125-5.126,10.252-10.25a2.388,2.388,0,0,1,.245-.19l-.035-.088c-.19-.017-.381-.047-.571-.047-1.337,0-2.675,0-4.012,0a1.525,1.525,0,0,1-.352-.027.886.886,0,0,1,.232-1.746q2.039-.006,4.079,0a6.06,6.06,0,0,1,.641.036,3.525,3.525,0,0,1,3.083,3.359c.022,1.485.009,2.97.007,4.455a.874.874,0,0,1-.872.9.884.884,0,0,1-.9-.9c-.008-.805,0-1.611,0-2.416,0-.65,0-1.3,0-1.951C179.665,67.428,179.645,67.32,179.628,67.151Z" transform="translate(-160.509 -62.319)" fill="#fff"/>
      </g>
      <g id="Group_113" data-name="Group 113" transform="translate(0 17.972)">
        <path id="Path_315" data-name="Path 315" d="M215.435,89.515c-12.529-.405-24.463-4.17-35.858-8.29S156.9,72.54,144.667,70.357c-7.865-1.4-16.861-1.6-23.2,2.323-6.1,3.785-8.071,10.3-9.13,16.351-.8,4.552-1.266,9.342.92,13.6,1.516,2.959,4.209,5.446,6.069,8.29,6.479,9.862,1.9,22.023-5.12,31.652-3.291,4.518-7.114,8.831-9.654,13.635s-3.717,10.317-1.494,15.223c2.2,4.866,7.457,8.513,13.145,11.082,11.555,5.217,25.166,6.71,38.448,7.555,29.392,1.872,58.939,1.061,88.409.251,10.907-.3,21.86-.606,32.588-2.175,5.959-.872,12.109-2.255,16.435-5.6,5.49-4.241,6.851-11.422,3.173-16.739-6.173-8.919-23.23-11.134-27.551-20.707-2.373-5.268.066-11.136,3.516-16.023,7.4-10.481,19.81-19.678,20.464-31.659.449-8.231-5.517-16.47-14.74-20.365-9.666-4.1-23.074-3.577-30.2,3.179C239.4,87.2,226.5,89.871,215.435,89.515Z" transform="translate(-101.886 -69.438)" fill="#ff6ea1" opacity="0.1"/>
        <path id="Path_576" data-name="Path 576" d="M495.513,164.589c0,.544-.061.985-.136.985s-.136-.441-.136-.985.077-.288.152-.288S495.513,164.046,495.513,164.589Z" transform="translate(-356.491 -60.847)" fill="#ffd037"/>
        <path id="Path_577" data-name="Path 577" d="M496.961,169.839c-.479.261-.894.418-.93.352s.322-.33.8-.591.29-.071.325,0S497.439,169.578,496.961,169.839Z" transform="translate(-357.348 -65.447)" fill="#ffd037"/>
      </g>
    </g>
  </g>
</svg>
